<?xml version="1.0" encoding="UTF-8"?>
<!-- Created with Inkscape (http://www.inkscape.org/) -->
<svg width="198.95" height="128.33" version="1.1" viewBox="0 0 198.95 128.33" xml:space="preserve" xmlns="http://www.w3.org/2000/svg" xmlns:cc="http://creativecommons.org/ns#" xmlns:dc="http://purl.org/dc/elements/1.1/" xmlns:rdf="http://www.w3.org/1999/02/22-rdf-syntax-ns#"><metadata><rdf:RDF><cc:Work rdf:about=""><dc:format>image/svg+xml</dc:format><dc:type rdf:resource="http://purl.org/dc/dcmitype/StillImage"/><dc:title/></cc:Work></rdf:RDF></metadata><g transform="matrix(1.3333 0 0 -1.3333 -776.79 406.89)"><g transform="translate(686.42 238.48)"><path d="m0 0c-6.973 0.437-16.342-0.804-26.381-3.494-20.254-5.428-33.69-14.09-31.946-20.598s17.71-7.292 37.965-1.865c10.039 2.69 18.773 6.299 24.594 10.164 3.217 2.136 8.451 6.332 7.352 10.434-1.099 4.101-7.73 5.118-11.584 5.359"/></g><g transform="translate(694.44 282.99)"><path d="m0 0c-4.425 1.579-8.389 4.339-11.419 7.987-9.928 11.492-25.89 16.977-41.529 12.786-15.591-4.177-26.748-17.29-29.621-32.155-2e-3 -0.01-5e-3 -0.022-8e-3 -0.038-0.91-4.508-3.024-8.904-6.034-12.448 12.021 6.952 26.939 12.961 43.104 17.292 15.984 4.283 31.731 6.536 45.507 6.576"/></g><g transform="translate(705.44 278.41)"><path d="m0 0c-15.622 1.57-35.316-0.538-55.455-5.934s-38.249-13.418-50.992-22.588c-12.026-8.654-17.888-17.483-16.082-24.222 2.442-9.114 18.623-14.23 41.636-13.343-0.124 0.31-0.229 0.628-0.317 0.955-2.984 11.136 16.029 20.484 34.817 25.518 10.403 2.788 20.178 4.073 27.523 3.619 10.903-0.674 14.291-4.917 15.213-8.357 0.087-0.327 0.155-0.656 0.203-0.987 20.439 10.753 31.935 23.287 29.492 32.403-1.806 6.739-11.296 11.454-26.038 12.936"/></g></g></svg>
